<svg width="32" height="32" viewBox="0 0 32 32" fill="none" xmlns="http://www.w3.org/2000/svg">
<g clip-path="url(#clip0_15804_2)">
<mask id="mask0_15804_2" style="mask-type:luminance" maskUnits="userSpaceOnUse" x="0" y="0" width="32" height="32">
<path d="M32 0H0V32H32V0Z" fill="white"/>
</mask>
<g mask="url(#mask0_15804_2)">
<path fill-rule="evenodd" clip-rule="evenodd" d="M2 16C2 8.26801 8.26801 2 16 2C23.732 2 30 8.26801 30 16C30 23.732 23.732 30 16 30C8.26801 30 2 23.732 2 16ZM16 0C7.16344 0 0 7.16344 0 16C0 24.8366 7.16344 32 16 32C24.8366 32 32 24.8366 32 16C32 7.16344 24.8366 0 16 0ZM14.7071 10.2929C14.3166 9.90237 13.6834 9.90237 13.2929 10.2929C12.9024 10.6834 12.9024 11.3166 13.2929 11.7071L17.5858 16L13.2929 20.2929C12.9024 20.6834 12.9024 21.3166 13.2929 21.7071C13.6834 22.0976 14.3166 22.0976 14.7071 21.7071L19.7071 16.7071C20.0976 16.3166 20.0976 15.6834 19.7071 15.2929L14.7071 10.2929Z" fill="#A65CF0"/>
</g>
</g>
<defs>
<clipPath id="clip0_15804_2">
<rect width="32" height="32" fill="white"/>
</clipPath>
</defs>
</svg>
